<svg width="152" height="151" viewBox="0 0 152 151" fill="none" xmlns="http://www.w3.org/2000/svg">
<g filter="url(#filter0_d_1019_3932)">
<path d="M15.9588 112.185L6.14904 107.354C5.44555 107.008 5 106.292 5 105.508V42.271C5 40.7298 6.63137 39.7353 8.00132 40.4412L70.2677 72.5299C70.9527 72.8829 71.3831 73.5889 71.3831 74.3596V137.433C71.3831 138.971 69.7573 139.966 68.3877 139.266L59.6095 134.778C58.9272 134.429 58.4952 133.73 58.4882 132.964L58.0155 81.2529C58.0082 80.4556 57.5412 79.7342 56.8167 79.4013L48.3231 75.4982C46.9595 74.8716 45.4052 75.8678 45.4052 77.3686V124.139C45.4052 125.68 43.7756 126.674 42.4057 125.97L31.7914 120.513C31.1054 120.161 30.6741 119.454 30.6741 118.683V68.0993C30.6741 67.2999 30.2112 66.5727 29.487 66.2344L22.3067 62.8798C20.9499 62.2459 19.3919 63.2269 19.3772 64.7244L18.9265 110.359C18.9115 111.875 17.3187 112.855 15.9588 112.185Z" fill="#087FB3"/>
<path d="M15.9588 112.185L6.14904 107.354C5.44555 107.008 5 106.292 5 105.508V42.271C5 40.7298 6.63137 39.7353 8.00132 40.4412L70.2677 72.5299C70.9527 72.8829 71.3831 73.5889 71.3831 74.3596V137.433C71.3831 138.971 69.7573 139.966 68.3877 139.266L59.6095 134.778C58.9272 134.429 58.4952 133.73 58.4882 132.964L58.0155 81.2529C58.0082 80.4556 57.5412 79.7342 56.8167 79.4013L48.3231 75.4982C46.9595 74.8716 45.4052 75.8678 45.4052 77.3686V124.139C45.4052 125.68 43.7756 126.674 42.4057 125.97L31.7914 120.513C31.1054 120.161 30.6741 119.454 30.6741 118.683V68.0993C30.6741 67.2999 30.2112 66.5727 29.487 66.2344L22.3067 62.8798C20.9499 62.2459 19.3919 63.2269 19.3772 64.7244L18.9265 110.359C18.9115 111.875 17.3187 112.855 15.9588 112.185Z" stroke="#087FB3" stroke-width="1.0292" stroke-linejoin="bevel"/>
</g>
<g filter="url(#filter1_d_1019_3932)">
<path d="M72.9378 1.47832L11.4338 32.8525C9.93724 33.6159 9.93616 35.7539 11.4319 36.5188L24.3732 43.1367C24.9783 43.4461 25.6971 43.4369 26.294 43.1122L48.5625 30.9976C49.1648 30.67 49.8908 30.6637 50.4987 30.9811L97.9847 55.7704C98.5761 56.0791 99.2805 56.0821 99.8745 55.7783L110.8 50.1912C112.292 49.4285 112.296 47.2987 110.808 46.5298L67.9168 24.3701C66.4462 23.6103 66.4284 21.5135 67.886 20.7289L73.2709 17.8302C73.8692 17.5082 74.5878 17.5021 75.1914 17.8139L123.172 42.6031C123.779 42.9169 124.502 42.9087 125.102 42.5814L136.165 36.5473C137.616 35.7557 137.589 33.6627 136.118 32.9086L74.8121 1.4802C74.2239 1.17864 73.5266 1.17794 72.9378 1.47832Z" fill="#8D8281"/>
<path d="M72.9378 1.47832L11.4338 32.8525C9.93724 33.6159 9.93616 35.7539 11.4319 36.5188L24.3732 43.1367C24.9783 43.4461 25.6971 43.4369 26.294 43.1122L48.5625 30.9976C49.1648 30.67 49.8908 30.6637 50.4987 30.9811L97.9847 55.7704C98.5761 56.0791 99.2805 56.0821 99.8745 55.7783L110.8 50.1912C112.292 49.4285 112.296 47.2987 110.808 46.5298L67.9168 24.3701C66.4462 23.6103 66.4284 21.5135 67.886 20.7289L73.2709 17.8302C73.8692 17.5082 74.5878 17.5021 75.1914 17.8139L123.172 42.6031C123.779 42.9169 124.502 42.9087 125.102 42.5814L136.165 36.5473C137.616 35.7557 137.589 33.6627 136.118 32.9086L74.8121 1.4802C74.2239 1.17864 73.5266 1.17794 72.9378 1.47832Z" stroke="#8D8281" stroke-width="1.0292" stroke-linejoin="bevel"/>
</g>
<g filter="url(#filter2_d_1019_3932)">
<path d="M145 51.9758V43.8081C145 41.7797 142.854 40.4697 141.05 41.3967L80.0893 72.7179C79.1854 73.1822 78.6172 74.1131 78.6172 75.1292V108.694C78.6172 110.715 80.7491 112.025 82.5525 111.113L124.598 89.833C126.401 88.9203 128.533 90.2308 128.533 92.2519V95.6794C128.533 96.6853 127.976 97.6085 127.086 98.0776L80.0639 122.868C79.1741 123.337 78.6172 124.26 78.6172 125.266V136.552C78.6172 138.581 80.7658 139.891 82.5702 138.961L143.531 107.546C144.433 107.081 145 106.151 145 105.136V70.1658C145 68.1401 142.86 66.83 141.056 67.7516L92.8913 92.3599C91.0875 93.2815 88.9468 91.9714 88.9468 89.9457V84.0748C88.9468 83.0584 89.5152 82.1275 90.4193 81.6632L143.528 54.3874C144.432 53.9231 145 52.9921 145 51.9758Z" fill="#E9510E"/>
<path d="M145 51.9758V43.8081C145 41.7797 142.854 40.4697 141.05 41.3967L80.0893 72.7179C79.1854 73.1822 78.6172 74.1131 78.6172 75.1292V108.694C78.6172 110.715 80.7491 112.025 82.5525 111.113L124.598 89.833C126.401 88.9203 128.533 90.2308 128.533 92.2519V95.6794C128.533 96.6853 127.976 97.6085 127.086 98.0776L80.0639 122.868C79.1741 123.337 78.6172 124.26 78.6172 125.266V136.552C78.6172 138.581 80.7658 139.891 82.5702 138.961L143.531 107.546C144.433 107.081 145 106.151 145 105.136V70.1658C145 68.1401 142.86 66.83 141.056 67.7516L92.8913 92.3599C91.0875 93.2815 88.9468 91.9714 88.9468 89.9457V84.0748C88.9468 83.0584 89.5152 82.1275 90.4193 81.6632L143.528 54.3874C144.432 53.9231 145 52.9921 145 51.9758Z" stroke="#E9510E" stroke-width="1.35553" stroke-linejoin="bevel"/>
</g>
<defs>
<filter id="filter0_d_1019_3932" x="0.368568" y="39.6953" width="75.6462" height="108.548" filterUnits="userSpaceOnUse" color-interpolation-filters="sRGB">
<feFlood flood-opacity="0" result="BackgroundImageFix"/>
<feColorMatrix in="SourceAlpha" type="matrix" values="0 0 0 0 0 0 0 0 0 0 0 0 0 0 0 0 0 0 127 0" result="hardAlpha"/>
<feOffset dy="4.11678"/>
<feGaussianBlur stdDeviation="2.05839"/>
<feComposite in2="hardAlpha" operator="out"/>
<feColorMatrix type="matrix" values="0 0 0 0 0 0 0 0 0 0 0 0 0 0 0 0 0 0 0.1 0"/>
<feBlend mode="normal" in2="BackgroundImageFix" result="effect1_dropShadow_1019_3932"/>
<feBlend mode="normal" in="SourceGraphic" in2="effect1_dropShadow_1019_3932" result="shape"/>
</filter>
<filter id="filter1_d_1019_3932" x="5.67912" y="0.738281" width="136.19" height="64.0148" filterUnits="userSpaceOnUse" color-interpolation-filters="sRGB">
<feFlood flood-opacity="0" result="BackgroundImageFix"/>
<feColorMatrix in="SourceAlpha" type="matrix" values="0 0 0 0 0 0 0 0 0 0 0 0 0 0 0 0 0 0 127 0" result="hardAlpha"/>
<feOffset dy="4.11678"/>
<feGaussianBlur stdDeviation="2.05839"/>
<feComposite in2="hardAlpha" operator="out"/>
<feColorMatrix type="matrix" values="0 0 0 0 0 0 0 0 0 0 0 0 0 0 0 0 0 0 0.1 0"/>
<feBlend mode="normal" in2="BackgroundImageFix" result="effect1_dropShadow_1019_3932"/>
<feBlend mode="normal" in="SourceGraphic" in2="effect1_dropShadow_1019_3932" result="shape"/>
</filter>
<filter id="filter2_d_1019_3932" x="72.5173" y="40.4141" width="78.583" height="110.375" filterUnits="userSpaceOnUse" color-interpolation-filters="sRGB">
<feFlood flood-opacity="0" result="BackgroundImageFix"/>
<feColorMatrix in="SourceAlpha" type="matrix" values="0 0 0 0 0 0 0 0 0 0 0 0 0 0 0 0 0 0 127 0" result="hardAlpha"/>
<feOffset dy="5.4221"/>
<feGaussianBlur stdDeviation="2.71105"/>
<feComposite in2="hardAlpha" operator="out"/>
<feColorMatrix type="matrix" values="0 0 0 0 0 0 0 0 0 0 0 0 0 0 0 0 0 0 0.1 0"/>
<feBlend mode="normal" in2="BackgroundImageFix" result="effect1_dropShadow_1019_3932"/>
<feBlend mode="normal" in="SourceGraphic" in2="effect1_dropShadow_1019_3932" result="shape"/>
</filter>
</defs>
</svg>
